<svg xmlns="http://www.w3.org/2000/svg" class="icon icon-tabler icon-tabler-parachute" width="250px" height="250px" viewBox="0 0 24 24" stroke-width="1.00" stroke="rgba(1, 1, 1, 1)" fill="none" stroke-linecap="round" stroke-linejoin="round"><circle cx="50%" cy="50%" r="50%" stroke="none" stroke-width="0" fill="rgba(255, 255, 255, 1)"/><g transform="translate(2.40, 2.40) scale(0.8)"><path stroke="none" d="M0 0h24v24H0z" fill="none"/><path d="M22 12a10 10 0 1 0 -20 0"/><path d="M22 12c0 -1.66 -1.46 -3 -3.25 -3c-1.8 0 -3.25 1.34 -3.25 3c0 -1.66 -1.57 -3 -3.5 -3s-3.5 1.34 -3.5 3c0 -1.66 -1.46 -3 -3.25 -3c-1.8 0 -3.25 1.34 -3.25 3"/><path d="M2 12l10 10l-3.5 -10"/><path d="M15.5 12l-3.5 10l10 -10"/></g></svg>